<svg width="20" height="20" viewBox="0 0 20 20" fill="none" xmlns="http://www.w3.org/2000/svg">
<path d="M9.14529 1.40728C9.53472 0.766091 10.4653 0.766091 10.8547 1.40728L11.6698 2.74938C11.9267 3.17238 12.4544 3.34383 12.9109 3.15262L14.3592 2.54596C15.0511 2.25612 15.804 2.8031 15.7421 3.55073L15.6127 5.11562C15.5719 5.60884 15.8981 6.05771 16.3797 6.17133L17.908 6.53183C18.6382 6.70405 18.9258 7.58908 18.4363 8.15758L17.4118 9.34754C17.0889 9.72258 17.0889 10.2774 17.4118 10.6525L18.4363 11.8424C18.9257 12.4109 18.6382 13.2959 17.908 13.4682L16.3797 13.8287C15.8981 13.9423 15.5719 14.3912 15.6127 14.8844L15.7421 16.4493C15.804 17.1969 15.0511 17.7439 14.3592 17.454L12.9109 16.8474C12.4544 16.6562 11.9267 16.8276 11.6698 17.2506L10.8547 18.5927C10.4653 19.2339 9.53472 19.2339 9.14529 18.5927L8.33017 17.2506C8.07326 16.8276 7.54559 16.6562 7.08911 16.8474L5.6408 17.454C4.94887 17.7439 4.19602 17.1969 4.25785 16.4493L4.38727 14.8844C4.42806 14.3912 4.10194 13.9423 3.62025 13.8287L2.09196 13.4682C1.36181 13.2959 1.07425 12.4109 1.56372 11.8424L2.58824 10.6525C2.91115 10.2774 2.91115 9.72258 2.58824 9.34754L1.56372 8.15758C1.07425 7.58908 1.36181 6.70405 2.09196 6.53183L3.62025 6.17133C4.10194 6.05771 4.42806 5.60884 4.38727 5.11562L4.25785 3.55073C4.19602 2.8031 4.94887 2.25612 5.6408 2.54596L7.08911 3.15262C7.54559 3.34383 8.07326 3.17238 8.33017 2.74938L9.14529 1.40728Z" fill="#2081E2"/>
<path d="M7 10L9 12L13 8" stroke="white" stroke-width="2" stroke-linecap="round" stroke-linejoin="round"/>
</svg>
