<svg width="118" height="25" viewBox="0 0 118 25" fill="none" xmlns="http://www.w3.org/2000/svg">
<path fill-rule="evenodd" clip-rule="evenodd" d="M0 0.495728V24.5044H8.18587V15.7105V13.9308V12.5349H8.50343C8.83274 12.8374 9.26791 13.2329 9.80893 13.7214C10.3735 14.21 10.9027 14.652 11.3967 15.0475L22.7934 24.5044H30.3089V0.495728H22.123V9.56876V11.174V12.4651H21.7702C21.535 12.2558 21.2762 12.0231 20.9939 11.7672C20.7117 11.5113 20.4412 11.267 20.1824 11.0344C19.9237 10.8018 19.7237 10.6273 19.5826 10.511L7.58604 0.495728H0ZM42.6172 15.0475V24.5044H51.3323V15.0475L63.3994 0.495728H53.5905L47.2747 8.59166H47.0277L40.7119 0.495728H30.5148L42.6172 15.0475ZM63.6048 24.5044V0.495728H86.4227H88.1624H118V6.46299H107.697V24.5044H98.982V6.46299H88.1624H86.4227H72.32V10.511H86.1865V16.4782H72.32V24.5044H63.6048Z" fill="#95FF00"/>
</svg>
